<svg width="100" height="101" viewBox="0 0 100 101" fill="none" xmlns="http://www.w3.org/2000/svg">
<path d="M81.25 22.1753H70.4219L65.0977 14.1909C64.8124 13.7634 64.4261 13.4128 63.973 13.1702C63.5199 12.9277 63.014 12.8006 62.5 12.8003H37.5C36.986 12.8006 36.4801 12.9277 36.027 13.1702C35.5739 13.4128 35.1876 13.7634 34.9023 14.1909L29.5742 22.1753H18.75C16.2636 22.1753 13.879 23.163 12.1209 24.9212C10.3627 26.6793 9.375 29.0639 9.375 31.5503V75.3003C9.375 77.7867 10.3627 80.1713 12.1209 81.9294C13.879 83.6876 16.2636 84.6753 18.75 84.6753H81.25C83.7364 84.6753 86.121 83.6876 87.8791 81.9294C89.6373 80.1713 90.625 77.7867 90.625 75.3003V31.5503C90.625 29.0639 89.6373 26.6793 87.8791 24.9212C86.121 23.163 83.7364 22.1753 81.25 22.1753ZM84.375 75.3003C84.375 76.1291 84.0458 76.924 83.4597 77.51C82.8737 78.0961 82.0788 78.4253 81.25 78.4253H18.75C17.9212 78.4253 17.1263 78.0961 16.5403 77.51C15.9542 76.924 15.625 76.1291 15.625 75.3003V31.5503C15.625 30.7215 15.9542 29.9266 16.5403 29.3406C17.1263 28.7545 17.9212 28.4253 18.75 28.4253H31.25C31.7646 28.4256 32.2713 28.2989 32.7252 28.0563C33.179 27.8137 33.566 27.4628 33.8516 27.0347L39.1719 19.0503H60.8242L66.1484 27.0347C66.434 27.4628 66.821 27.8137 67.2748 28.0563C67.7286 28.2989 68.2354 28.4256 68.75 28.4253H81.25C82.0788 28.4253 82.8737 28.7545 83.4597 29.3406C84.0458 29.9266 84.375 30.7215 84.375 31.5503V75.3003ZM50 34.6753C46.6006 34.6753 43.2776 35.6833 40.4511 37.5719C37.6247 39.4605 35.4217 42.1448 34.1208 45.2854C32.8199 48.426 32.4796 51.8819 33.1428 55.2159C33.8059 58.55 35.4429 61.6125 37.8466 64.0162C40.2503 66.4199 43.3128 68.0569 46.6469 68.72C49.9809 69.3832 53.4368 69.0429 56.5774 67.742C59.718 66.4411 62.4023 64.2381 64.2909 61.4117C66.1795 58.5852 67.1875 55.2622 67.1875 51.8628C67.1823 47.306 65.3699 42.9373 62.1477 39.7151C58.9255 36.4929 54.5568 34.6805 50 34.6753ZM50 62.8003C47.8368 62.8003 45.7221 62.1588 43.9235 60.957C42.1248 59.7552 40.7229 58.047 39.8951 56.0484C39.0672 54.0498 38.8506 51.8507 39.2727 49.729C39.6947 47.6073 40.7364 45.6585 42.266 44.1288C43.7957 42.5992 45.7445 41.5575 47.8662 41.1355C49.9879 40.7134 52.187 40.93 54.1856 41.7579C56.1842 42.5857 57.8924 43.9876 59.0942 45.7862C60.296 47.5849 60.9375 49.6996 60.9375 51.8628C60.9375 54.7636 59.7852 57.5456 57.734 59.5968C55.6828 61.648 52.9008 62.8003 50 62.8003Z" fill="black"/>
</svg>
