<svg width="90" height="91" viewBox="0 0 90 91" fill="none" xmlns="http://www.w3.org/2000/svg">
<path d="M32.6625 29.2128L41.25 20.5878V56.5503C41.25 57.5448 41.6451 58.4987 42.3484 59.2019C43.0516 59.9052 44.0054 60.3003 45 60.3003C45.9946 60.3003 46.9484 59.9052 47.6516 59.2019C48.3549 58.4987 48.75 57.5448 48.75 56.5503V20.5878L57.3375 29.2128C57.6861 29.5643 58.1009 29.8432 58.5578 30.0336C59.0148 30.224 59.505 30.322 60 30.322C60.495 30.322 60.9852 30.224 61.4422 30.0336C61.8991 29.8432 62.3139 29.5643 62.6625 29.2128C63.014 28.8642 63.293 28.4494 63.4833 27.9924C63.6737 27.5355 63.7717 27.0453 63.7717 26.5503C63.7717 26.0552 63.6737 25.5651 63.4833 25.1081C63.293 24.6511 63.014 24.2364 62.6625 23.8878L47.6625 8.88777C47.3059 8.54637 46.8853 8.27875 46.425 8.10027C45.512 7.7252 44.488 7.7252 43.575 8.10027C43.1147 8.27875 42.6941 8.54637 42.3375 8.88777L27.3375 23.8878C26.9879 24.2374 26.7105 24.6525 26.5213 25.1093C26.3321 25.5662 26.2347 26.0558 26.2347 26.5503C26.2347 27.0447 26.3321 27.5344 26.5213 27.9912C26.7105 28.448 26.9879 28.8631 27.3375 29.2128C27.6871 29.5624 28.1022 29.8398 28.5591 30.029C29.0159 30.2182 29.5055 30.3156 30 30.3156C30.4945 30.3156 30.9841 30.2182 31.4409 30.029C31.8978 29.8398 32.3129 29.5624 32.6625 29.2128ZM78.75 45.3003C77.7554 45.3003 76.8016 45.6954 76.0983 46.3986C75.3951 47.1019 75 48.0557 75 49.0503V71.5503C75 72.5448 74.6049 73.4987 73.9017 74.2019C73.1984 74.9052 72.2446 75.3003 71.25 75.3003H18.75C17.7554 75.3003 16.8016 74.9052 16.0984 74.2019C15.3951 73.4987 15 72.5448 15 71.5503V49.0503C15 48.0557 14.6049 47.1019 13.9017 46.3986C13.1984 45.6954 12.2446 45.3003 11.25 45.3003C10.2554 45.3003 9.30161 45.6954 8.59835 46.3986C7.89509 47.1019 7.5 48.0557 7.5 49.0503V71.5503C7.5 74.534 8.68526 77.3954 10.795 79.5052C12.9048 81.615 15.7663 82.8003 18.75 82.8003H71.25C74.2337 82.8003 77.0952 81.615 79.205 79.5052C81.3147 77.3954 82.5 74.534 82.5 71.5503V49.0503C82.5 48.0557 82.1049 47.1019 81.4017 46.3986C80.6984 45.6954 79.7446 45.3003 78.75 45.3003Z" fill="black"/>
</svg>
